<svg width="100" height="45" viewBox="0 0 100 45" fill="none" xmlns="http://www.w3.org/2000/svg">
<circle cx="54.5" cy="22.5" r="22.5" fill="#FFE6BD"/>
<path d="M8.57992 29V25.78H8.11992V22.2C8.11992 21.5733 7.96659 21.1067 7.65992 20.8C7.35326 20.4933 6.87992 20.34 6.23992 20.34C5.90659 20.34 5.50659 20.3467 5.03992 20.36C4.57326 20.3733 4.09992 20.3933 3.61992 20.42C3.15326 20.4333 2.73326 20.4533 2.35992 20.48V18.12C2.66659 18.0933 3.01326 18.0667 3.39992 18.04C3.78659 18.0133 4.17992 18 4.57992 18C4.99326 17.9867 5.37992 17.98 5.73992 17.98C6.85992 17.98 7.78659 18.1267 8.51992 18.42C9.26659 18.7133 9.82659 19.1733 10.1999 19.8C10.5866 20.4267 10.7799 21.2467 10.7799 22.26V29H8.57992ZM5.07992 29.28C4.29326 29.28 3.59992 29.14 2.99992 28.86C2.41326 28.58 1.95326 28.18 1.61992 27.66C1.29992 27.14 1.13992 26.5133 1.13992 25.78C1.13992 24.98 1.33326 24.3267 1.71992 23.82C2.11992 23.3133 2.67326 22.9333 3.37992 22.68C4.09992 22.4267 4.93992 22.3 5.89992 22.3H8.41992V23.96H5.85992C5.21992 23.96 4.72659 24.12 4.37992 24.44C4.04659 24.7467 3.87992 25.1467 3.87992 25.64C3.87992 26.1333 4.04659 26.5333 4.37992 26.84C4.72659 27.1467 5.21992 27.3 5.85992 27.3C6.24659 27.3 6.59992 27.2333 6.91992 27.1C7.25326 26.9533 7.52659 26.7133 7.73992 26.38C7.96659 26.0333 8.09326 25.5667 8.11992 24.98L8.79992 25.76C8.73326 26.52 8.54659 27.16 8.23992 27.68C7.94659 28.2 7.53326 28.6 6.99992 28.88C6.47992 29.1467 5.83992 29.28 5.07992 29.28ZM13.8977 29V14.4H16.6777V29H13.8977ZM12.5377 16.48V14.4H16.6777V16.48H12.5377ZM24.5715 29.14C23.5715 29.14 22.7448 29.0133 22.0915 28.76C21.4515 28.4933 20.9715 28.0533 20.6515 27.44C20.3315 26.8133 20.1715 25.9733 20.1715 24.92L20.1915 15.08H22.7915L22.7715 25.1C22.7715 25.6333 22.9115 26.0467 23.1915 26.34C23.4848 26.62 23.8982 26.76 24.4315 26.76H26.1315V29.14H24.5715ZM18.4515 20.18V18.14H26.1315V20.18H18.4515ZM37.9812 29.38C36.6878 29.38 35.5945 29.1733 34.7012 28.76C33.8212 28.3467 33.1478 27.78 32.6812 27.06C32.2145 26.3267 31.9812 25.5 31.9812 24.58H34.7612C34.7612 24.9667 34.8678 25.3467 35.0812 25.72C35.2945 26.08 35.6345 26.3733 36.1012 26.6C36.5812 26.8267 37.2078 26.94 37.9812 26.94C38.6745 26.94 39.2545 26.84 39.7212 26.64C40.1878 26.44 40.5345 26.18 40.7612 25.86C40.9878 25.5267 41.1012 25.1533 41.1012 24.74C41.1012 24.22 40.8812 23.8067 40.4412 23.5C40.0012 23.18 39.3212 22.98 38.4012 22.9L37.1212 22.8C35.7212 22.68 34.6012 22.2467 33.7612 21.5C32.9345 20.74 32.5212 19.74 32.5212 18.5C32.5212 17.5667 32.7412 16.7667 33.1812 16.1C33.6212 15.42 34.2345 14.9 35.0212 14.54C35.8212 14.1667 36.7545 13.98 37.8212 13.98C38.9278 13.98 39.8812 14.1733 40.6812 14.56C41.4812 14.9467 42.1012 15.4933 42.5412 16.2C42.9812 16.8933 43.2012 17.7133 43.2012 18.66H40.4212C40.4212 18.26 40.3212 17.8933 40.1212 17.56C39.9345 17.2133 39.6478 16.94 39.2612 16.74C38.8878 16.5267 38.4078 16.42 37.8212 16.42C37.2612 16.42 36.7945 16.5133 36.4212 16.7C36.0478 16.8867 35.7678 17.14 35.5812 17.46C35.3945 17.78 35.3012 18.1267 35.3012 18.5C35.3012 18.9533 35.4678 19.3533 35.8012 19.7C36.1345 20.0333 36.6612 20.2267 37.3812 20.28L38.6612 20.4C39.7012 20.48 40.6145 20.7 41.4012 21.06C42.1878 21.42 42.7945 21.9067 43.2212 22.52C43.6612 23.1333 43.8812 23.8733 43.8812 24.74C43.8812 25.66 43.6412 26.4733 43.1612 27.18C42.6812 27.8733 41.9945 28.4133 41.1012 28.8C40.2212 29.1867 39.1812 29.38 37.9812 29.38ZM48.9177 24.52V22.06H51.7577C52.3311 22.06 52.8111 21.9467 53.1977 21.72C53.5977 21.4933 53.8977 21.18 54.0977 20.78C54.3111 20.38 54.4177 19.92 54.4177 19.4C54.4177 18.88 54.3111 18.42 54.0977 18.02C53.8977 17.62 53.5977 17.3133 53.1977 17.1C52.8111 16.8733 52.3311 16.76 51.7577 16.76H48.9177V14.3H51.5177C52.7444 14.3 53.7844 14.5 54.6377 14.9C55.5044 15.3 56.1644 15.8733 56.6177 16.62C57.0711 17.3533 57.2977 18.2267 57.2977 19.24V19.56C57.2977 20.5733 57.0711 21.4533 56.6177 22.2C56.1644 22.9333 55.5044 23.5067 54.6377 23.92C53.7844 24.32 52.7444 24.52 51.5177 24.52H48.9177ZM46.4777 29V14.3H49.3177V29H46.4777ZM57.1471 29L62.1271 14.4H66.7671L71.8871 29H68.9671L64.6271 16.34L65.6471 16.78H63.1471L64.1871 16.34L59.9871 29H57.1471ZM60.6271 25.12L61.5271 22.72H67.4471L68.3271 25.12H60.6271ZM80.0695 29.38C78.7495 29.38 77.6161 29.1467 76.6695 28.68C75.7228 28.2133 74.9495 27.6067 74.3495 26.86C73.7628 26.1133 73.3295 25.3 73.0495 24.42C72.7695 23.54 72.6295 22.6933 72.6295 21.88V21.44C72.6295 20.5333 72.7695 19.64 73.0495 18.76C73.3428 17.88 73.7895 17.08 74.3895 16.36C74.9895 15.64 75.7495 15.0667 76.6695 14.64C77.6028 14.2 78.7028 13.98 79.9695 13.98C81.2895 13.98 82.4361 14.22 83.4095 14.7C84.3961 15.1667 85.1828 15.8333 85.7695 16.7C86.3561 17.5533 86.7095 18.5533 86.8295 19.7H83.9695C83.8628 19.0333 83.6228 18.4733 83.2495 18.02C82.8895 17.5533 82.4295 17.2067 81.8695 16.98C81.3095 16.74 80.6761 16.62 79.9695 16.62C79.2495 16.62 78.6095 16.7467 78.0495 17C77.4895 17.24 77.0228 17.5867 76.6495 18.04C76.2761 18.4933 75.9895 19.0267 75.7895 19.64C75.6028 20.2533 75.5095 20.9333 75.5095 21.68C75.5095 22.4 75.6028 23.0667 75.7895 23.68C75.9895 24.2933 76.2828 24.8333 76.6695 25.3C77.0561 25.7533 77.5295 26.1067 78.0895 26.36C78.6628 26.6133 79.3228 26.74 80.0695 26.74C81.1628 26.74 82.0828 26.4733 82.8295 25.94C83.5895 25.3933 84.0495 24.6333 84.2095 23.66H87.0695C86.9361 24.7 86.5828 25.6533 86.0095 26.52C85.4361 27.3867 84.6495 28.08 83.6495 28.6C82.6495 29.12 81.4561 29.38 80.0695 29.38ZM89.466 29V14.4H92.246V29H89.466ZM91.846 29V26.6H98.466V29H91.846ZM91.846 22.78V20.38H97.946V22.78H91.846ZM91.846 16.8V14.4H98.306V16.8H91.846Z" fill="#0E0F19"/>
</svg>
